<?xml version="1.0" encoding="UTF-8" standalone="no"?>
<svg
   xmlns:osb="http://www.openswatchbook.org/uri/2009/osb"
   xmlns:dc="http://purl.org/dc/elements/1.1/"
   xmlns:cc="http://creativecommons.org/ns#"
   xmlns:rdf="http://www.w3.org/1999/02/22-rdf-syntax-ns#"
   xmlns:svg="http://www.w3.org/2000/svg"
   xmlns="http://www.w3.org/2000/svg"
   xmlns:sodipodi="http://sodipodi.sourceforge.net/DTD/sodipodi-0.dtd"
   xmlns:inkscape="http://www.inkscape.org/namespaces/inkscape"
   width="1052"
   height="1052"
   version="1"
   id="svg10"
   sodipodi:docname="chatpic.svg"
   inkscape:export-filename="/Users/edjopato/git/home/wikidata-mall-telegram-game/botfather-settings/chatpic.png"
   inkscape:export-xdpi="58.400002"
   inkscape:export-ydpi="58.400002"
   inkscape:version="0.92.2 5c3e80d, 2017-08-06">
  <metadata
     id="metadata16">
    <rdf:RDF>
      <cc:Work
         rdf:about="">
        <dc:format>image/svg+xml</dc:format>
        <dc:type
           rdf:resource="http://purl.org/dc/dcmitype/StillImage" />
      </cc:Work>
    </rdf:RDF>
  </metadata>
  <defs
     id="defs14">
    <linearGradient
       id="linearGradient2326"
       osb:paint="solid">
      <stop
         style="stop-color:#3e0000;stop-opacity:1;"
         offset="0"
         id="stop2324" />
    </linearGradient>
  </defs>
  <sodipodi:namedview
     pagecolor="#ffffff"
     bordercolor="#666666"
     borderopacity="1"
     objecttolerance="10"
     gridtolerance="10"
     guidetolerance="10"
     inkscape:pageopacity="0"
     inkscape:pageshadow="2"
     inkscape:window-width="2551"
     inkscape:window-height="1382"
     id="namedview12"
     showgrid="false"
     inkscape:zoom="1.1102662"
     inkscape:cx="526"
     inkscape:cy="526"
     inkscape:window-x="0"
     inkscape:window-y="0"
     inkscape:window-maximized="0"
     inkscape:current-layer="svg10" />
  <circle
     style="display:none;opacity:1;fill:#3e0000;fill-opacity:1;stroke-width:2.76055074;stroke-miterlimit:4;stroke-dasharray:2.76055086, 2.76055086;stroke-dashoffset:0"
     id="path848"
     cx="526"
     cy="526"
     r="525"
     inkscape:label="circle" />
  <path
     style="opacity:0.5;fill:#55c8ff;fill-opacity:1;stroke-width:3.13766408;stroke-miterlimit:4;stroke-dasharray:3.13766398, 3.13766398000000013;stroke-dashoffset:0"
     d="M 526 208.05859 A 459.79965 307.13358 0 0 0 66.201172 515.19141 A 459.79965 307.13358 0 0 0 222.11914 745.32812 L 175.63281 854.75 L 293.26953 779.69336 A 459.79965 307.13358 0 0 0 526 822.32617 A 459.79965 307.13358 0 0 0 985.79883 515.19141 A 459.79965 307.13358 0 0 0 526 208.05859 z "
     id="path2364"
     inkscape:label="bubble" />
  <path
     style="fill:#990000;stroke-width:1.10062361"
     d="M 399.4043 220.19336 A 459.79965 307.13358 0 0 0 330.88086 237.48633 L 330.88086 366.76953 L 408.75586 569.50977 L 408.75586 244.64062 L 399.4043 220.19336 z M 305.79102 245.58398 A 459.79965 307.13358 0 0 0 228.78125 280.91016 L 228.78125 820.83984 L 293.26953 779.69336 A 459.79965 307.13358 0 0 0 305.79102 784.08203 L 305.79102 245.58398 z M 201.95703 297.60352 A 459.79965 307.13358 0 0 0 176 316.53906 L 176 713.91602 A 459.79965 307.13358 0 0 0 201.95703 732.48438 L 201.95703 297.60352 z M 201.95703 792.78711 L 176 853.88477 L 176 854.51562 L 201.95703 837.95508 L 201.95703 792.78711 z "
     id="path2"
     inkscape:label="red" />
  <path
     style="fill:#339966;stroke-width:1.10062361"
     d="M 798.99219 268.48047 L 798.99219 761.89062 A 459.79965 307.13358 0 0 0 824.08398 748.93555 L 824.08398 281.80469 A 459.79965 307.13358 0 0 0 798.99219 268.48047 z M 850.90625 298.13867 L 850.90625 732.24414 A 459.79965 307.13358 0 0 0 876 713.8457 L 876 316.13086 A 459.79965 307.13358 0 0 0 850.90625 298.13867 z M 434.71484 312.50586 L 434.71484 637.08984 L 459.80859 702.41797 L 459.80859 378.10938 L 434.71484 312.50586 z M 486.63086 448.23438 L 486.63086 741.4375 L 511.72266 741.4375 L 511.72266 513.83789 L 486.63086 448.23438 z "
     id="path4"
     inkscape:label="green" />
  <path
     style="fill:#006699;stroke-width:1.10062361"
     d="M 652.94141 220.12695 L 640.64648 252.08008 L 640.64648 577.36328 L 667.4707 507.5293 L 667.4707 223.35156 A 459.79965 307.13358 0 0 0 652.94141 220.12695 z M 692.56445 228.92188 L 692.56445 442.20117 L 722.59766 364.00977 L 722.59766 792.41992 A 459.79965 307.13358 0 0 0 770.4375 774.89844 L 770.4375 255.21875 A 459.79965 307.13358 0 0 0 692.56445 228.92188 z M 615.55469 317.30273 L 537.68164 519.70703 L 537.68164 741.4375 L 577.625 741.4375 L 615.55469 642.69141 L 615.55469 317.30273 z "
     id="path6"
     inkscape:label="blue" />
</svg>
